<svg width="16" height="16" viewBox="0 0 16 16" fill="none" xmlns="http://www.w3.org/2000/svg">
<g clip-path="url(#clip0_627_14394)">
<path d="M12.6197 9.33225C12.5244 9.48674 12.3884 9.61209 12.2267 9.69466C12.065 9.77722 11.8838 9.81383 11.7027 9.8005L8.51945 9.81014L8.52283 15.0683C8.52048 15.1829 8.48775 15.2949 8.42797 15.3928C8.36819 15.4907 8.2835 15.5709 8.18256 15.6254C8.08162 15.6798 7.96804 15.7065 7.85342 15.7027C7.7388 15.6988 7.62724 15.6647 7.53014 15.6037C7.43975 15.5481 7.36648 15.4686 7.3184 15.374C7.27031 15.2794 7.2493 15.1734 7.25766 15.0676L7.25721 9.8204L4.06005 9.82204C3.85252 9.81934 3.64889 9.76525 3.46737 9.6646C2.67755 9.2086 3.01449 8.19301 3.55449 7.2577C3.96943 6.55435 4.49378 5.9216 5.10783 5.38324L5.10952 3.44432L4.15551 2.2007C3.99136 1.99743 3.88962 1.75096 3.8626 1.49109C3.83558 1.23122 3.88444 0.96909 4.00326 0.736402C4.12672 0.543926 4.29948 0.388035 4.50359 0.284939C4.70769 0.181842 4.93569 0.135306 5.16387 0.150167L10.5044 0.148147C10.8056 0.146617 11.1022 0.222419 11.3657 0.368301C11.5165 0.456125 11.6469 0.575201 11.7479 0.717538C11.849 0.859874 11.9184 1.02218 11.9516 1.19356C11.9847 1.36494 11.9809 1.54143 11.9402 1.71119C11.8995 1.88094 11.8231 2.04004 11.7158 2.17781L10.6595 3.41545L10.6629 5.32958C11.8691 6.31236 13.1957 8.33459 12.6197 9.33225Z" fill="#6B778C"/>
</g>
<defs>
<clipPath id="clip0_627_14394">
<rect width="16" height="16" fill="white"/>
</clipPath>
</defs>
</svg>
